<svg id="visual" viewBox="0 0 900 600" width="900" height="600" xmlns="http://www.w3.org/2000/svg" xmlns:xlink="http://www.w3.org/1999/xlink" version="1.1"><rect x="0" y="0" width="900" height="600" fill="#19184b"></rect><path d="M0 392L129 382L257 409L386 355L514 372L643 352L771 410L900 449L900 601L771 601L643 601L514 601L386 601L257 601L129 601L0 601Z" fill="#4facf7"></path><path d="M0 417L129 446L257 458L386 400L514 436L643 395L771 424L900 425L900 601L771 601L643 601L514 601L386 601L257 601L129 601L0 601Z" fill="#2b9dfc"></path><path d="M0 453L129 487L257 469L386 457L514 469L643 441L771 470L900 446L900 601L771 601L643 601L514 601L386 601L257 601L129 601L0 601Z" fill="#008cff"></path><path d="M0 505L129 542L257 485L386 486L514 482L643 511L771 496L900 526L900 601L771 601L643 601L514 601L386 601L257 601L129 601L0 601Z" fill="#007aff"></path><path d="M0 558L129 558L257 537L386 527L514 566L643 550L771 531L900 540L900 601L771 601L643 601L514 601L386 601L257 601L129 601L0 601Z" fill="#0066ff"></path></svg>